<svg xmlns="http://www.w3.org/2000/svg" width="1890.47" height="380.761" viewBox="0 0 500.187 100.743">
  <g style="line-height:1.25;-inkscape-font-specification:'Futura Bold';text-align:center" font-weight="500" font-size="87.939" font-family="Futura" letter-spacing="0" word-spacing="0" text-anchor="middle" stroke-width=".191" font-stretch="condensed">
    <path style="-inkscape-font-specification:'Futura Medium Condensed'" d="M0 1.273h11.565v98.26H0zM24.91 1.273h11.564v87.06H55.38v11.2h-30.47zM62.718 1.273h11.565v87.06h18.904v11.2H62.718zM101.416 1.273h11.343v69.432q0 10.628 1.668 14.128 1.724 3.5 6.783 3.5 5.06 0 6.672-3.055 1.668-3.118 1.668-12.664V1.273h11.343v71.34q0 16.038-4.281 21.702-5.116 6.428-15.624 6.428-11.565 0-16.291-8.273-3.28-5.664-3.28-21.765zM158.185 1.273h9.897l7.562 40.093q1.39 7.51 2.502 15.083 1.167 7.51 2.113 15.783.11-1.082.166-1.655.056-.636.112-.89l1.612-11.265 1.446-10.692 1.278-7.064 6.728-39.393h10.008l7.896 98.26H198.44l-1.946-33.347q-.111-2.545-.222-4.391-.056-1.846-.056-3.055l-.5-13.173-.278-12.092q0-.127-.056-.51 0-.445-.056-1.145l-.278 1.973q-.444 3.5-.834 6.11-.333 2.609-.611 4.39l-1.446 8.974-.556 3.373-7.228 42.894h-7.784l-6.783-37.039q-1.39-7.319-2.503-14.828-1.056-7.573-1.946-15.847l-3.336 67.714h-10.897zM219.068 1.273h11.565v98.26h-11.565zM243.977 1.273h10.787l11.51 39.202q5.003 16.61 8.84 35.448-1.39-11.391-2.057-20.62-.668-9.227-.668-17.373V1.273h11.621v98.26h-10.842l-12.955-44.23q-1.78-6.172-3.392-12.664-1.557-6.491-2.891-13.619-.111-.89-.39-2.164-.222-1.272-.555-2.927.166 1.655.278 2.864.11 1.145.166 1.973l.612 9.991.612 12.155q.055 1.019.055 2.482.056 1.464.056 3.31l.611 42.83h-11.398zM311.143 1.273h9.008l18.404 98.26H327.1l-3.225-19.155h-17.014l-3.28 19.156h-11.12zm11.065 68.859l-2.558-15.656q-2.557-15.973-4.17-34.111-.778 8.846-2.001 17.947-1.224 9.037-2.892 19.22l-2.113 12.6zM336.775 1.273h37.642v11.582h-12.955v86.679H350.12V12.855h-13.345zM380.756 1.273h11.565v98.26h-11.565zM448.645 52.822q0 26.029-5.06 36.975-5.06 10.946-16.958 10.946-12.51 0-17.626-11.773-5.06-11.52-5.06-40.921 0-26.22 5.004-37.103Q414.005 0 426.071 0q10.786 0 16.013 8.464 3.447 5.664 5.004 16.101 1.557 9.674 1.557 28.257zm-12.121 1.4q0-25.52-2.002-33.857-2.002-8.4-8.173-8.4-6.172 0-8.23 7.7-2.001 7.764-2.001 31.184 0 21.574 2.113 29.91 2.168 7.892 8.118 7.892 5.838 0 8.006-7.382 2.169-7.319 2.169-27.047zM460.154 1.273h10.787l11.51 39.202q5.003 16.61 8.84 35.448-1.39-11.391-2.058-20.62-.667-9.227-.667-17.373V1.273h11.62v98.26h-10.841l-12.955-44.23q-1.78-6.172-3.392-12.664-1.557-6.491-2.891-13.619-.112-.89-.39-2.164-.222-1.272-.556-2.927.167 1.655.278 2.864.112 1.145.167 1.973l.612 9.991.611 12.155q.056 1.019.056 2.482.056 1.464.056 3.31l.611 42.83h-11.398z"/>
  </g>
</svg>
